<mxfile host="app.diagrams.net" modified="2023-11-29T10:56:26.784Z" agent="Mozilla/5.0 (Macintosh; Intel Mac OS X 10_15_7) AppleWebKit/537.36 (KHTML, like Gecko) Chrome/118.0.0.0 Safari/537.36" etag="RNQx9XqV2-EPYUCK9-jN" version="22.1.4" type="github">
  <diagram id="C5RBs43oDa-KdzZeNtuy" name="Page-1">
    <mxGraphModel dx="954" dy="522" grid="1" gridSize="10" guides="1" tooltips="1" connect="1" arrows="1" fold="1" page="1" pageScale="1" pageWidth="827" pageHeight="1169" math="0" shadow="0">
      <root>
        <mxCell id="WIyWlLk6GJQsqaUBKTNV-0" />
        <mxCell id="WIyWlLk6GJQsqaUBKTNV-1" parent="WIyWlLk6GJQsqaUBKTNV-0" />
        <mxCell id="4YHQ1KVmEaqqgdB84rWg-0" value="" style="swimlane;startSize=0;" vertex="1" parent="WIyWlLk6GJQsqaUBKTNV-1">
          <mxGeometry x="30" y="30" width="230" height="670" as="geometry" />
        </mxCell>
        <mxCell id="4YHQ1KVmEaqqgdB84rWg-1" value="Внешние источники" style="text;html=1;strokeColor=none;fillColor=none;align=center;verticalAlign=middle;whiteSpace=wrap;rounded=0;" vertex="1" parent="4YHQ1KVmEaqqgdB84rWg-0">
          <mxGeometry x="30" y="20" width="120" height="30" as="geometry" />
        </mxCell>
        <mxCell id="4YHQ1KVmEaqqgdB84rWg-2" value="" style="swimlane;startSize=0;" vertex="1" parent="4YHQ1KVmEaqqgdB84rWg-0">
          <mxGeometry x="30" y="70" width="170" height="180" as="geometry" />
        </mxCell>
        <mxCell id="4YHQ1KVmEaqqgdB84rWg-3" value="CRM" style="text;html=1;strokeColor=none;fillColor=none;align=center;verticalAlign=middle;whiteSpace=wrap;rounded=0;" vertex="1" parent="4YHQ1KVmEaqqgdB84rWg-2">
          <mxGeometry x="40" y="10" width="60" height="30" as="geometry" />
        </mxCell>
        <mxCell id="4YHQ1KVmEaqqgdB84rWg-4" value="" style="rounded=1;whiteSpace=wrap;html=1;" vertex="1" parent="4YHQ1KVmEaqqgdB84rWg-2">
          <mxGeometry x="25" y="40" width="120" height="50" as="geometry" />
        </mxCell>
        <mxCell id="4YHQ1KVmEaqqgdB84rWg-5" value="Услуги" style="text;html=1;strokeColor=none;fillColor=none;align=center;verticalAlign=middle;whiteSpace=wrap;rounded=0;" vertex="1" parent="4YHQ1KVmEaqqgdB84rWg-2">
          <mxGeometry x="55" y="55" width="60" height="30" as="geometry" />
        </mxCell>
        <mxCell id="4YHQ1KVmEaqqgdB84rWg-6" value="" style="rounded=1;whiteSpace=wrap;html=1;" vertex="1" parent="4YHQ1KVmEaqqgdB84rWg-2">
          <mxGeometry x="25" y="110" width="120" height="50" as="geometry" />
        </mxCell>
        <mxCell id="4YHQ1KVmEaqqgdB84rWg-7" value="Курсы" style="text;html=1;strokeColor=none;fillColor=none;align=center;verticalAlign=middle;whiteSpace=wrap;rounded=0;" vertex="1" parent="4YHQ1KVmEaqqgdB84rWg-2">
          <mxGeometry x="55" y="125" width="60" height="30" as="geometry" />
        </mxCell>
        <mxCell id="4YHQ1KVmEaqqgdB84rWg-10" value="" style="swimlane;startSize=0;" vertex="1" parent="4YHQ1KVmEaqqgdB84rWg-0">
          <mxGeometry x="30" y="530" width="170" height="110" as="geometry" />
        </mxCell>
        <mxCell id="4YHQ1KVmEaqqgdB84rWg-11" value="Auth" style="text;html=1;strokeColor=none;fillColor=none;align=center;verticalAlign=middle;whiteSpace=wrap;rounded=0;" vertex="1" parent="4YHQ1KVmEaqqgdB84rWg-10">
          <mxGeometry x="40" y="10" width="60" height="20" as="geometry" />
        </mxCell>
        <mxCell id="4YHQ1KVmEaqqgdB84rWg-12" value="" style="rounded=1;whiteSpace=wrap;html=1;" vertex="1" parent="4YHQ1KVmEaqqgdB84rWg-10">
          <mxGeometry x="25" y="40" width="120" height="60" as="geometry" />
        </mxCell>
        <mxCell id="4YHQ1KVmEaqqgdB84rWg-13" value="Пользователи" style="text;html=1;strokeColor=none;fillColor=none;align=center;verticalAlign=middle;whiteSpace=wrap;rounded=0;" vertex="1" parent="4YHQ1KVmEaqqgdB84rWg-10">
          <mxGeometry x="55" y="55" width="60" height="30" as="geometry" />
        </mxCell>
        <mxCell id="4YHQ1KVmEaqqgdB84rWg-74" value="" style="swimlane;startSize=0;" vertex="1" parent="4YHQ1KVmEaqqgdB84rWg-0">
          <mxGeometry x="30" y="330" width="170" height="110" as="geometry" />
        </mxCell>
        <mxCell id="4YHQ1KVmEaqqgdB84rWg-75" value="Billing" style="text;html=1;strokeColor=none;fillColor=none;align=center;verticalAlign=middle;whiteSpace=wrap;rounded=0;" vertex="1" parent="4YHQ1KVmEaqqgdB84rWg-74">
          <mxGeometry x="40" y="10" width="60" height="20" as="geometry" />
        </mxCell>
        <mxCell id="4YHQ1KVmEaqqgdB84rWg-76" value="" style="rounded=1;whiteSpace=wrap;html=1;" vertex="1" parent="4YHQ1KVmEaqqgdB84rWg-74">
          <mxGeometry x="25" y="40" width="120" height="60" as="geometry" />
        </mxCell>
        <mxCell id="4YHQ1KVmEaqqgdB84rWg-77" value="Оплаты" style="text;html=1;strokeColor=none;fillColor=none;align=center;verticalAlign=middle;whiteSpace=wrap;rounded=0;" vertex="1" parent="4YHQ1KVmEaqqgdB84rWg-74">
          <mxGeometry x="55" y="55" width="60" height="30" as="geometry" />
        </mxCell>
        <mxCell id="4YHQ1KVmEaqqgdB84rWg-14" value="" style="swimlane;startSize=0;" vertex="1" parent="WIyWlLk6GJQsqaUBKTNV-1">
          <mxGeometry x="300" y="30" width="500" height="670" as="geometry" />
        </mxCell>
        <mxCell id="4YHQ1KVmEaqqgdB84rWg-15" value="" style="swimlane;startSize=0;" vertex="1" parent="4YHQ1KVmEaqqgdB84rWg-14">
          <mxGeometry x="30" y="10" width="130" height="640" as="geometry" />
        </mxCell>
        <mxCell id="4YHQ1KVmEaqqgdB84rWg-16" value="Primary data" style="text;html=1;strokeColor=none;fillColor=none;align=center;verticalAlign=middle;whiteSpace=wrap;rounded=0;" vertex="1" parent="4YHQ1KVmEaqqgdB84rWg-15">
          <mxGeometry x="17" width="73" height="30" as="geometry" />
        </mxCell>
        <mxCell id="4YHQ1KVmEaqqgdB84rWg-17" value="" style="rounded=1;whiteSpace=wrap;html=1;" vertex="1" parent="4YHQ1KVmEaqqgdB84rWg-15">
          <mxGeometry x="10" y="60" width="100" height="50" as="geometry" />
        </mxCell>
        <mxCell id="4YHQ1KVmEaqqgdB84rWg-18" value="Услуги" style="text;html=1;strokeColor=none;fillColor=none;align=center;verticalAlign=middle;whiteSpace=wrap;rounded=0;" vertex="1" parent="4YHQ1KVmEaqqgdB84rWg-15">
          <mxGeometry x="40" y="75" width="60" height="30" as="geometry" />
        </mxCell>
        <mxCell id="4YHQ1KVmEaqqgdB84rWg-19" value="" style="rounded=1;whiteSpace=wrap;html=1;" vertex="1" parent="4YHQ1KVmEaqqgdB84rWg-15">
          <mxGeometry x="10" y="130" width="100" height="50" as="geometry" />
        </mxCell>
        <mxCell id="4YHQ1KVmEaqqgdB84rWg-20" value="Курсы" style="text;html=1;strokeColor=none;fillColor=none;align=center;verticalAlign=middle;whiteSpace=wrap;rounded=0;" vertex="1" parent="4YHQ1KVmEaqqgdB84rWg-15">
          <mxGeometry x="40" y="145" width="60" height="30" as="geometry" />
        </mxCell>
        <mxCell id="4YHQ1KVmEaqqgdB84rWg-21" value="" style="rounded=1;whiteSpace=wrap;html=1;" vertex="1" parent="4YHQ1KVmEaqqgdB84rWg-15">
          <mxGeometry x="10" y="320" width="100" height="60" as="geometry" />
        </mxCell>
        <mxCell id="4YHQ1KVmEaqqgdB84rWg-22" value="Оплаты" style="text;html=1;strokeColor=none;fillColor=none;align=center;verticalAlign=middle;whiteSpace=wrap;rounded=0;" vertex="1" parent="4YHQ1KVmEaqqgdB84rWg-15">
          <mxGeometry x="40" y="335" width="60" height="30" as="geometry" />
        </mxCell>
        <mxCell id="4YHQ1KVmEaqqgdB84rWg-23" value="" style="rounded=1;whiteSpace=wrap;html=1;" vertex="1" parent="4YHQ1KVmEaqqgdB84rWg-15">
          <mxGeometry x="17" y="560" width="110" height="60" as="geometry" />
        </mxCell>
        <mxCell id="4YHQ1KVmEaqqgdB84rWg-24" value="Покупатели" style="text;html=1;strokeColor=none;fillColor=none;align=center;verticalAlign=middle;whiteSpace=wrap;rounded=0;" vertex="1" parent="4YHQ1KVmEaqqgdB84rWg-15">
          <mxGeometry x="47" y="575" width="60" height="30" as="geometry" />
        </mxCell>
        <mxCell id="4YHQ1KVmEaqqgdB84rWg-25" value="" style="swimlane;startSize=0;" vertex="1" parent="4YHQ1KVmEaqqgdB84rWg-14">
          <mxGeometry x="185" y="30" width="115" height="620" as="geometry" />
        </mxCell>
        <mxCell id="4YHQ1KVmEaqqgdB84rWg-26" value="Core data" style="text;html=1;strokeColor=none;fillColor=none;align=center;verticalAlign=middle;whiteSpace=wrap;rounded=0;" vertex="1" parent="4YHQ1KVmEaqqgdB84rWg-25">
          <mxGeometry x="17" width="73" height="30" as="geometry" />
        </mxCell>
        <mxCell id="4YHQ1KVmEaqqgdB84rWg-27" value="" style="rounded=1;whiteSpace=wrap;html=1;" vertex="1" parent="4YHQ1KVmEaqqgdB84rWg-25">
          <mxGeometry x="12.5" y="50" width="90" height="40" as="geometry" />
        </mxCell>
        <mxCell id="4YHQ1KVmEaqqgdB84rWg-28" value="Student_course" style="text;html=1;strokeColor=none;fillColor=none;align=center;verticalAlign=middle;whiteSpace=wrap;rounded=0;" vertex="1" parent="4YHQ1KVmEaqqgdB84rWg-25">
          <mxGeometry x="28.25" y="57.5" width="56" height="25" as="geometry" />
        </mxCell>
        <mxCell id="4YHQ1KVmEaqqgdB84rWg-31" value="" style="rounded=1;whiteSpace=wrap;html=1;" vertex="1" parent="4YHQ1KVmEaqqgdB84rWg-25">
          <mxGeometry x="10" y="140" width="90" height="50" as="geometry" />
        </mxCell>
        <mxCell id="4YHQ1KVmEaqqgdB84rWg-32" value="Course" style="text;html=1;strokeColor=none;fillColor=none;align=center;verticalAlign=middle;whiteSpace=wrap;rounded=0;" vertex="1" parent="4YHQ1KVmEaqqgdB84rWg-25">
          <mxGeometry x="24" y="150" width="56" height="30" as="geometry" />
        </mxCell>
        <mxCell id="4YHQ1KVmEaqqgdB84rWg-33" value="" style="rounded=1;whiteSpace=wrap;html=1;" vertex="1" parent="4YHQ1KVmEaqqgdB84rWg-25">
          <mxGeometry x="2.5" y="205" width="110" height="50" as="geometry" />
        </mxCell>
        <mxCell id="4YHQ1KVmEaqqgdB84rWg-34" value="Course_direction" style="text;html=1;strokeColor=none;fillColor=none;align=center;verticalAlign=middle;whiteSpace=wrap;rounded=0;" vertex="1" parent="4YHQ1KVmEaqqgdB84rWg-25">
          <mxGeometry x="27.25" y="220" width="56" height="25" as="geometry" />
        </mxCell>
        <mxCell id="4YHQ1KVmEaqqgdB84rWg-35" value="" style="rounded=1;whiteSpace=wrap;html=1;" vertex="1" parent="4YHQ1KVmEaqqgdB84rWg-25">
          <mxGeometry x="8.25" y="500" width="90" height="50" as="geometry" />
        </mxCell>
        <mxCell id="4YHQ1KVmEaqqgdB84rWg-36" value="Student" style="text;html=1;strokeColor=none;fillColor=none;align=center;verticalAlign=middle;whiteSpace=wrap;rounded=0;" vertex="1" parent="4YHQ1KVmEaqqgdB84rWg-25">
          <mxGeometry x="22.25" y="515" width="56" height="25" as="geometry" />
        </mxCell>
        <mxCell id="4YHQ1KVmEaqqgdB84rWg-70" value="" style="rounded=1;whiteSpace=wrap;html=1;" vertex="1" parent="4YHQ1KVmEaqqgdB84rWg-25">
          <mxGeometry x="12.5" y="560" width="90" height="50" as="geometry" />
        </mxCell>
        <mxCell id="4YHQ1KVmEaqqgdB84rWg-71" value="Lector" style="text;html=1;strokeColor=none;fillColor=none;align=center;verticalAlign=middle;whiteSpace=wrap;rounded=0;" vertex="1" parent="4YHQ1KVmEaqqgdB84rWg-25">
          <mxGeometry x="26.5" y="575" width="56" height="25" as="geometry" />
        </mxCell>
        <mxCell id="4YHQ1KVmEaqqgdB84rWg-42" value="" style="swimlane;startSize=0;" vertex="1" parent="4YHQ1KVmEaqqgdB84rWg-14">
          <mxGeometry x="330" y="30" width="160" height="440" as="geometry" />
        </mxCell>
        <mxCell id="4YHQ1KVmEaqqgdB84rWg-43" value="DataMart" style="text;html=1;strokeColor=none;fillColor=none;align=center;verticalAlign=middle;whiteSpace=wrap;rounded=0;" vertex="1" parent="4YHQ1KVmEaqqgdB84rWg-42">
          <mxGeometry x="17" width="73" height="30" as="geometry" />
        </mxCell>
        <mxCell id="4YHQ1KVmEaqqgdB84rWg-44" value="" style="rounded=1;whiteSpace=wrap;html=1;" vertex="1" parent="4YHQ1KVmEaqqgdB84rWg-42">
          <mxGeometry x="17" y="342.5" width="100" height="50" as="geometry" />
        </mxCell>
        <mxCell id="4YHQ1KVmEaqqgdB84rWg-45" value="Month_dim" style="text;html=1;strokeColor=none;fillColor=none;align=center;verticalAlign=middle;whiteSpace=wrap;rounded=0;" vertex="1" parent="4YHQ1KVmEaqqgdB84rWg-42">
          <mxGeometry x="47" y="357.5" width="60" height="30" as="geometry" />
        </mxCell>
        <mxCell id="4YHQ1KVmEaqqgdB84rWg-46" value="" style="rounded=1;whiteSpace=wrap;html=1;" vertex="1" parent="4YHQ1KVmEaqqgdB84rWg-42">
          <mxGeometry x="17" y="240" width="100" height="50" as="geometry" />
        </mxCell>
        <mxCell id="4YHQ1KVmEaqqgdB84rWg-47" value="Sales_fact" style="text;html=1;strokeColor=none;fillColor=none;align=center;verticalAlign=middle;whiteSpace=wrap;rounded=0;" vertex="1" parent="4YHQ1KVmEaqqgdB84rWg-42">
          <mxGeometry x="30" y="250" width="60" height="30" as="geometry" />
        </mxCell>
        <mxCell id="4YHQ1KVmEaqqgdB84rWg-48" value="" style="rounded=1;whiteSpace=wrap;html=1;" vertex="1" parent="4YHQ1KVmEaqqgdB84rWg-42">
          <mxGeometry x="15.88" y="70" width="100" height="50" as="geometry" />
        </mxCell>
        <mxCell id="4YHQ1KVmEaqqgdB84rWg-49" value="Course_dim" style="text;html=1;strokeColor=none;fillColor=none;align=center;verticalAlign=middle;whiteSpace=wrap;rounded=0;" vertex="1" parent="4YHQ1KVmEaqqgdB84rWg-42">
          <mxGeometry x="35.88" y="80" width="60" height="30" as="geometry" />
        </mxCell>
        <mxCell id="4YHQ1KVmEaqqgdB84rWg-50" value="" style="rounded=1;whiteSpace=wrap;html=1;" vertex="1" parent="4YHQ1KVmEaqqgdB84rWg-42">
          <mxGeometry x="1.75" y="150" width="128.25" height="50" as="geometry" />
        </mxCell>
        <mxCell id="4YHQ1KVmEaqqgdB84rWg-51" value="Coursedirection_dim" style="text;html=1;strokeColor=none;fillColor=none;align=center;verticalAlign=middle;whiteSpace=wrap;rounded=0;" vertex="1" parent="4YHQ1KVmEaqqgdB84rWg-42">
          <mxGeometry x="31.75" y="165" width="68.25" height="30" as="geometry" />
        </mxCell>
        <mxCell id="4YHQ1KVmEaqqgdB84rWg-52" value="" style="endArrow=classic;html=1;rounded=0;exitX=1;exitY=0.5;exitDx=0;exitDy=0;" edge="1" parent="4YHQ1KVmEaqqgdB84rWg-14" source="4YHQ1KVmEaqqgdB84rWg-17" target="4YHQ1KVmEaqqgdB84rWg-27">
          <mxGeometry width="50" height="50" relative="1" as="geometry">
            <mxPoint x="70" y="290" as="sourcePoint" />
            <mxPoint x="120" y="240" as="targetPoint" />
          </mxGeometry>
        </mxCell>
        <mxCell id="4YHQ1KVmEaqqgdB84rWg-54" value="" style="endArrow=classic;html=1;rounded=0;entryX=0;entryY=0.5;entryDx=0;entryDy=0;exitX=1;exitY=0.5;exitDx=0;exitDy=0;" edge="1" parent="4YHQ1KVmEaqqgdB84rWg-14" source="4YHQ1KVmEaqqgdB84rWg-19" target="4YHQ1KVmEaqqgdB84rWg-31">
          <mxGeometry width="50" height="50" relative="1" as="geometry">
            <mxPoint x="70" y="270" as="sourcePoint" />
            <mxPoint x="120" y="220" as="targetPoint" />
          </mxGeometry>
        </mxCell>
        <mxCell id="4YHQ1KVmEaqqgdB84rWg-55" value="" style="endArrow=classic;html=1;rounded=0;entryX=0;entryY=0.5;entryDx=0;entryDy=0;exitX=1;exitY=0.75;exitDx=0;exitDy=0;" edge="1" parent="4YHQ1KVmEaqqgdB84rWg-14" source="4YHQ1KVmEaqqgdB84rWg-19" target="4YHQ1KVmEaqqgdB84rWg-33">
          <mxGeometry width="50" height="50" relative="1" as="geometry">
            <mxPoint x="80" y="260" as="sourcePoint" />
            <mxPoint x="130" y="210" as="targetPoint" />
          </mxGeometry>
        </mxCell>
        <mxCell id="4YHQ1KVmEaqqgdB84rWg-58" value="" style="endArrow=classic;html=1;rounded=0;exitX=1;exitY=0.5;exitDx=0;exitDy=0;entryX=0;entryY=0.5;entryDx=0;entryDy=0;" edge="1" parent="4YHQ1KVmEaqqgdB84rWg-14" source="4YHQ1KVmEaqqgdB84rWg-23" target="4YHQ1KVmEaqqgdB84rWg-35">
          <mxGeometry width="50" height="50" relative="1" as="geometry">
            <mxPoint x="80" y="290" as="sourcePoint" />
            <mxPoint x="130" y="240" as="targetPoint" />
          </mxGeometry>
        </mxCell>
        <mxCell id="4YHQ1KVmEaqqgdB84rWg-59" value="" style="endArrow=classic;html=1;rounded=0;entryX=0;entryY=0.5;entryDx=0;entryDy=0;exitX=1;exitY=0.5;exitDx=0;exitDy=0;" edge="1" parent="4YHQ1KVmEaqqgdB84rWg-14" source="4YHQ1KVmEaqqgdB84rWg-31" target="4YHQ1KVmEaqqgdB84rWg-48">
          <mxGeometry width="50" height="50" relative="1" as="geometry">
            <mxPoint x="310" y="120" as="sourcePoint" />
            <mxPoint x="360" y="70" as="targetPoint" />
          </mxGeometry>
        </mxCell>
        <mxCell id="4YHQ1KVmEaqqgdB84rWg-60" value="" style="endArrow=classic;html=1;rounded=0;exitX=1;exitY=0.75;exitDx=0;exitDy=0;" edge="1" parent="4YHQ1KVmEaqqgdB84rWg-14" source="4YHQ1KVmEaqqgdB84rWg-33" target="4YHQ1KVmEaqqgdB84rWg-50">
          <mxGeometry width="50" height="50" relative="1" as="geometry">
            <mxPoint x="300" y="300" as="sourcePoint" />
            <mxPoint x="350" y="250" as="targetPoint" />
          </mxGeometry>
        </mxCell>
        <mxCell id="4YHQ1KVmEaqqgdB84rWg-62" value="" style="endArrow=classic;html=1;rounded=0;entryX=0;entryY=0.25;entryDx=0;entryDy=0;exitX=1;exitY=0.5;exitDx=0;exitDy=0;" edge="1" parent="4YHQ1KVmEaqqgdB84rWg-14" source="4YHQ1KVmEaqqgdB84rWg-27" target="4YHQ1KVmEaqqgdB84rWg-46">
          <mxGeometry width="50" height="50" relative="1" as="geometry">
            <mxPoint x="60" y="290" as="sourcePoint" />
            <mxPoint x="110" y="240" as="targetPoint" />
          </mxGeometry>
        </mxCell>
        <mxCell id="4YHQ1KVmEaqqgdB84rWg-72" value="" style="endArrow=classic;html=1;rounded=0;entryX=0;entryY=0.5;entryDx=0;entryDy=0;" edge="1" parent="4YHQ1KVmEaqqgdB84rWg-14" source="4YHQ1KVmEaqqgdB84rWg-23" target="4YHQ1KVmEaqqgdB84rWg-70">
          <mxGeometry width="50" height="50" relative="1" as="geometry">
            <mxPoint x="50" y="540" as="sourcePoint" />
            <mxPoint x="100" y="490" as="targetPoint" />
          </mxGeometry>
        </mxCell>
        <mxCell id="4YHQ1KVmEaqqgdB84rWg-64" value="" style="endArrow=classic;html=1;rounded=0;exitX=1;exitY=0.5;exitDx=0;exitDy=0;entryX=0;entryY=0.5;entryDx=0;entryDy=0;" edge="1" parent="WIyWlLk6GJQsqaUBKTNV-1" source="4YHQ1KVmEaqqgdB84rWg-12" target="4YHQ1KVmEaqqgdB84rWg-23">
          <mxGeometry width="50" height="50" relative="1" as="geometry">
            <mxPoint x="290" y="460" as="sourcePoint" />
            <mxPoint x="340" y="410" as="targetPoint" />
          </mxGeometry>
        </mxCell>
        <mxCell id="4YHQ1KVmEaqqgdB84rWg-66" value="" style="endArrow=classic;html=1;rounded=0;exitX=1;exitY=0.5;exitDx=0;exitDy=0;entryX=0;entryY=0.5;entryDx=0;entryDy=0;" edge="1" parent="WIyWlLk6GJQsqaUBKTNV-1" source="4YHQ1KVmEaqqgdB84rWg-6" target="4YHQ1KVmEaqqgdB84rWg-19">
          <mxGeometry width="50" height="50" relative="1" as="geometry">
            <mxPoint x="290" y="260" as="sourcePoint" />
            <mxPoint x="300" y="220" as="targetPoint" />
          </mxGeometry>
        </mxCell>
        <mxCell id="4YHQ1KVmEaqqgdB84rWg-67" value="" style="endArrow=classic;html=1;rounded=0;entryX=0;entryY=0.5;entryDx=0;entryDy=0;exitX=1;exitY=0.5;exitDx=0;exitDy=0;" edge="1" parent="WIyWlLk6GJQsqaUBKTNV-1" source="4YHQ1KVmEaqqgdB84rWg-4" target="4YHQ1KVmEaqqgdB84rWg-17">
          <mxGeometry width="50" height="50" relative="1" as="geometry">
            <mxPoint x="170" y="170" as="sourcePoint" />
            <mxPoint x="220" y="120" as="targetPoint" />
          </mxGeometry>
        </mxCell>
        <mxCell id="4YHQ1KVmEaqqgdB84rWg-78" value="" style="endArrow=classic;html=1;rounded=0;entryX=0;entryY=0.5;entryDx=0;entryDy=0;exitX=1;exitY=0.5;exitDx=0;exitDy=0;" edge="1" parent="WIyWlLk6GJQsqaUBKTNV-1" source="4YHQ1KVmEaqqgdB84rWg-76" target="4YHQ1KVmEaqqgdB84rWg-21">
          <mxGeometry width="50" height="50" relative="1" as="geometry">
            <mxPoint x="340" y="520" as="sourcePoint" />
            <mxPoint x="390" y="470" as="targetPoint" />
          </mxGeometry>
        </mxCell>
      </root>
    </mxGraphModel>
  </diagram>
</mxfile>
